<?xml version="1.0" encoding="utf-8"?>
<!-- Svg Vector Icons : http://www.onlinewebfonts.com/icon -->
<!DOCTYPE svg PUBLIC "-//W3C//DTD SVG 1.1//EN" "http://www.w3.org/Graphics/SVG/1.1/DTD/svg11.dtd">
<svg version="1.1" xmlns="http://www.w3.org/2000/svg" xmlns:xlink="http://www.w3.org/1999/xlink" x="0px" y="0px" viewBox="0 0 1000 1000" enable-background="new 0 0 1000 1000" xml:space="preserve">
<metadata> Svg Vector Icons : http://www.onlinewebfonts.com/icon </metadata>
<g><path d="M390.8,774.9C180.8,774.9,10,604,10,394C10,184,180.8,13.2,390.8,13.2c210,0,380.8,170.8,380.8,380.8C771.6,604,600.8,774.9,390.8,774.9z M390.8,123.9c-149,0-270.1,121.2-270.1,270.1c0,149,121.2,270.1,270.1,270.1C539.8,664.2,661,543,661,394C661,245.1,539.8,123.9,390.8,123.9z"/><path d="M934.7,986.8c-14.2,0-28.3-5.4-39.1-16.2L609.9,685c-21.6-21.6-21.6-56.7,0-78.3c21.6-21.6,56.7-21.6,78.3,0l285.6,285.6c21.6,21.6,21.6,56.7,0,78.3C963,981.4,948.8,986.8,934.7,986.8z"/></g>
</svg>